<mxfile host="app.diagrams.net" modified="2022-11-10T13:47:00.109Z" agent="5.0 (Macintosh; Intel Mac OS X 10_15_7) AppleWebKit/537.36 (KHTML, like Gecko) Chrome/107.0.0.0 Safari/537.36" etag="GUEPLsQ_Nsmq_L8umm5d" version="20.5.3" type="github">
  <diagram id="V2glRfO1UxC2ilKReIfv" name="Page-1">
    <mxGraphModel dx="1426" dy="794" grid="1" gridSize="10" guides="1" tooltips="1" connect="1" arrows="1" fold="1" page="1" pageScale="1" pageWidth="850" pageHeight="1100" math="0" shadow="0">
      <root>
        <mxCell id="0" />
        <mxCell id="1" parent="0" />
        <mxCell id="Deuy4wg4WrwToiXc3-uR-1" value="" style="shape=cylinder3;whiteSpace=wrap;html=1;boundedLbl=1;backgroundOutline=1;size=15;" vertex="1" parent="1">
          <mxGeometry x="160" y="440" width="60" height="80" as="geometry" />
        </mxCell>
        <mxCell id="Deuy4wg4WrwToiXc3-uR-2" value="" style="shape=umlActor;verticalLabelPosition=bottom;verticalAlign=top;html=1;outlineConnect=0;" vertex="1" parent="1">
          <mxGeometry x="320" y="450" width="30" height="60" as="geometry" />
        </mxCell>
        <mxCell id="Deuy4wg4WrwToiXc3-uR-3" value="" style="shape=cylinder3;whiteSpace=wrap;html=1;boundedLbl=1;backgroundOutline=1;size=15;" vertex="1" parent="1">
          <mxGeometry x="305" y="280" width="60" height="80" as="geometry" />
        </mxCell>
        <mxCell id="Deuy4wg4WrwToiXc3-uR-4" value="" style="shape=cylinder3;whiteSpace=wrap;html=1;boundedLbl=1;backgroundOutline=1;size=15;" vertex="1" parent="1">
          <mxGeometry x="440" y="440" width="60" height="80" as="geometry" />
        </mxCell>
        <mxCell id="Deuy4wg4WrwToiXc3-uR-5" value="" style="shape=cylinder3;whiteSpace=wrap;html=1;boundedLbl=1;backgroundOutline=1;size=15;" vertex="1" parent="1">
          <mxGeometry x="305" y="600" width="60" height="80" as="geometry" />
        </mxCell>
        <mxCell id="Deuy4wg4WrwToiXc3-uR-10" value="" style="endArrow=classic;html=1;rounded=0;strokeWidth=1.2;" edge="1" parent="1">
          <mxGeometry width="50" height="50" relative="1" as="geometry">
            <mxPoint x="330" y="440" as="sourcePoint" />
            <mxPoint x="330" y="370" as="targetPoint" />
          </mxGeometry>
        </mxCell>
        <mxCell id="Deuy4wg4WrwToiXc3-uR-11" value="" style="endArrow=classic;html=1;rounded=0;strokeWidth=1.2;" edge="1" parent="1">
          <mxGeometry width="50" height="50" relative="1" as="geometry">
            <mxPoint x="330" y="520" as="sourcePoint" />
            <mxPoint x="330" y="590" as="targetPoint" />
          </mxGeometry>
        </mxCell>
        <mxCell id="Deuy4wg4WrwToiXc3-uR-12" value="" style="endArrow=classic;html=1;rounded=0;strokeWidth=1.2;" edge="1" parent="1">
          <mxGeometry width="50" height="50" relative="1" as="geometry">
            <mxPoint x="310" y="470" as="sourcePoint" />
            <mxPoint x="220" y="470" as="targetPoint" />
          </mxGeometry>
        </mxCell>
        <mxCell id="Deuy4wg4WrwToiXc3-uR-13" value="" style="endArrow=classic;html=1;rounded=0;strokeWidth=1.2;" edge="1" parent="1">
          <mxGeometry width="50" height="50" relative="1" as="geometry">
            <mxPoint x="360" y="470" as="sourcePoint" />
            <mxPoint x="440" y="470" as="targetPoint" />
          </mxGeometry>
        </mxCell>
        <mxCell id="Deuy4wg4WrwToiXc3-uR-14" value="" style="endArrow=classic;html=1;rounded=0;strokeWidth=1.2;strokeColor=#FF6666;" edge="1" parent="1">
          <mxGeometry width="50" height="50" relative="1" as="geometry">
            <mxPoint x="340" y="370" as="sourcePoint" />
            <mxPoint x="340" y="440" as="targetPoint" />
          </mxGeometry>
        </mxCell>
        <mxCell id="Deuy4wg4WrwToiXc3-uR-15" value="" style="endArrow=classic;html=1;rounded=0;strokeWidth=1.2;strokeColor=#FF6666;" edge="1" parent="1">
          <mxGeometry width="50" height="50" relative="1" as="geometry">
            <mxPoint x="340" y="590" as="sourcePoint" />
            <mxPoint x="340" y="520" as="targetPoint" />
          </mxGeometry>
        </mxCell>
        <mxCell id="Deuy4wg4WrwToiXc3-uR-16" value="" style="endArrow=classic;html=1;rounded=0;strokeWidth=1.2;strokeColor=#FF6666;" edge="1" parent="1">
          <mxGeometry width="50" height="50" relative="1" as="geometry">
            <mxPoint x="220" y="490" as="sourcePoint" />
            <mxPoint x="310" y="490" as="targetPoint" />
          </mxGeometry>
        </mxCell>
        <mxCell id="Deuy4wg4WrwToiXc3-uR-17" value="" style="endArrow=classic;html=1;rounded=0;strokeWidth=1.2;strokeColor=#FF6666;" edge="1" parent="1">
          <mxGeometry width="50" height="50" relative="1" as="geometry">
            <mxPoint x="440" y="490" as="sourcePoint" />
            <mxPoint x="360" y="490" as="targetPoint" />
          </mxGeometry>
        </mxCell>
      </root>
    </mxGraphModel>
  </diagram>
</mxfile>
